<?xml version="1.0" encoding="UTF-8"?>
<svg width="229px" height="122px" viewBox="0 0 229 122" version="1.1" xmlns="http://www.w3.org/2000/svg" xmlns:xlink="http://www.w3.org/1999/xlink">
    <!-- Generator: Sketch 55.1 (78136) - https://sketchapp.com -->
    <title>Logo</title>
    <desc>Created with Sketch.</desc>
    <defs>
        <path d="M30.5770737,15.3212874 L35.1881299,6.45979631 C35.2346647,6.59956158 36.2096934,11.92435 37.6335279,17.0410181 C39.0573625,22.1576863 39.8156678,24.7947659 39.8156678,24.8879427 L30.8562825,31.3942932 C25.5047803,25.5707404 19.2225819,20.352837 11.8235484,22.775435 C10.0086911,28.5523994 10.7067131,36.7053734 13.9641493,43.6470484 C17.2215854,50.5887234 23.1780401,56.4122763 32.159257,57.5303984 C32.6711398,55.2475657 32.9038139,53.9430898 32.9038139,53.5703825 L39.295579,45.221924 C39.295579,45.548043 39.930569,54.6419162 37.4642245,57.0645142 L28.9018208,65.636784 C28.4830076,66.0560798 28.1107292,66.2424335 27.7384508,66.2424335 C15.3136585,66.7549061 7.82155535,58.8348742 4.47104957,49.7967202 C1.074009,40.7585662 1.86510064,30.5091132 6.28590687,26.0366246 L14.8017757,17.4643548 C15.0809845,17.1848243 15.4067281,16.9052937 15.7324718,16.6723516 C21.1770436,12.7123357 26.1097327,13.0384547 30.5770737,15.3212874 Z M40.7751603,41.28491 C43.0966577,38.0602515 44.5066548,36.1829674 45.0051517,35.6530576 L52.5219593,28.0223573 C53.0335745,27.5851817 54.0174498,27.2672359 55.4735853,27.1480062 C62.7542629,26.6313442 68.3033199,27.0685197 72.0814012,28.499276 C77.3273044,30.5134872 79.9555243,33.5621136 80.4401494,37.0998948 C80.653575,38.6579091 80.4512588,40.310793 79.8736939,42.0119746 C78.9291736,44.833744 77.3943281,47.2978243 75.2691573,49.4439588 L67.7523497,57.0349159 C63.6594282,61.1682119 57.8348862,63.7117787 52.6793794,61.8041036 C44.6116015,58.942591 40.36126,55.842619 39.8889999,52.5041876 C39.3773847,49.2054994 38.6106345,43.5105309 40.7751603,41.28491 Z M47.305999,41.4875688 L47.1468225,41.5662811 L46.9876461,41.5662811 C46.4305286,43.6128025 47.0274402,45.8167486 48.7385868,48.1387633 C52.16088,52.8221488 63.3032298,57.6236028 71.0630806,53.2550668 C75.32105,45.8167486 73.450727,36.4499776 56.3790553,35.3480046 C49.6071964,36.1850679 49.0546408,37.5086234 47.305999,41.4875688 Z M81.8323552,30.2316097 L90.7826788,23.0360338 C94.3666839,23.7257213 95.790321,23.7953456 97.3836185,23.7642824 L97.7312039,23.4848425 L97.702278,23.7580697 C98.7017047,23.7045018 99.980475,23.6406188 102.041431,23.6978177 L97.7007461,27.1517833 C97.976551,30.9296087 98.7717272,34.6827015 100.07801,38.4891264 C101.384293,42.2955513 101.945462,44.8797805 101.804965,46.2068841 L101.19669,46.6959038 C103.143831,46.7017628 104.925444,46.7692769 106.616028,46.9456834 L109.525404,47.2492667 L100.575081,54.4448425 L97.7050198,54.1453617 C95.0708542,53.8704958 92.3808436,53.7476572 89.6308558,53.8158785 C86.880868,53.8840997 84.7371478,53.8577283 83.1645116,53.6936292 L91.510693,46.9480406 C90.2208204,42.2356642 88.3802877,35.9662099 88.7912703,30.9577481 C87.0717605,31.0545688 85.7308875,30.954117 81.8323552,30.2316097 Z M149.324359,28.7588357 L141.804942,36.244334 C141.765574,35.5388944 139.993983,34.9902191 136.490171,34.5591171 C132.986359,34.1672062 129.049492,33.4617666 124.679569,32.4819893 C125.033887,32.9914735 125.309468,33.3833844 125.466943,33.5793398 C126.608634,35.4213211 127.514114,36.9497737 128.183381,38.2430797 C131.450981,37.9295509 134.876056,37.9295509 136.883858,37.9295509 L130.742345,44.0433611 C131.293506,45.6893869 131.805299,47.4137949 132.238355,49.2557762 C132.67141,51.0977575 133.26194,53.2532675 133.931208,55.8006884 C134.128051,56.4669369 134.206788,56.8588478 134.16742,56.93723 L126.608634,64.3835373 C126.490528,64.5011106 125.703155,63.5213333 124.325251,61.4442055 C122.947348,59.3670776 121.293863,58.5832558 119.404167,59.0535489 L124.089039,54.3898091 C123.262297,51.4504773 122.356817,48.9030564 120.663964,45.728578 C117.356996,46.0812978 115.112981,46.7083553 113.97129,47.6489415 L113.459497,48.1584256 L113.695709,47.884088 L118.931743,42.6716729 C118.616793,42.2013798 118.262475,41.6527046 117.947526,41.0648382 L115.979092,38.2822707 C113.577603,34.8726458 110.624953,30.5616258 108.538413,27.1128098 C107.475459,25.4275929 107.042403,24.4478157 107.239247,24.2518602 L114.719295,16.7663618 C114.876769,16.6095975 115.506668,17.0406995 116.569622,18.0204768 C121.293863,22.5274522 129.443179,24.5653889 136.450803,25.8195038 C139.954615,26.4465613 142.946634,26.9560455 145.505598,27.3087653 C148.025193,27.6614851 149.28499,28.1709693 149.324359,28.7588357 Z M187.747719,29.5670486 L180.228302,37.052547 C180.188933,36.3471073 178.417343,35.7984321 174.913531,35.3673301 C171.409719,34.9754191 167.472852,34.2699795 163.102929,33.2902022 C163.457247,33.7996864 163.732828,34.1915973 163.890302,34.3875528 C165.031994,36.2295341 165.937473,37.7579866 166.606741,39.0512926 C169.874341,38.7377639 173.299415,38.7377639 175.307218,38.7377639 L169.165705,44.8515741 C169.716866,46.4975999 170.228659,48.2220079 170.661714,50.0639891 C171.09477,51.9059704 171.6853,54.0614804 172.354567,56.6089013 C172.551411,57.2751499 172.630148,57.6670608 172.590779,57.745443 L165.031994,65.1917502 C164.913888,65.3093235 164.126514,64.3295462 162.748611,62.2524184 C161.370707,60.1752906 159.717223,59.3914688 157.827527,59.8617619 L162.512399,55.198022 C161.685657,52.2586902 160.780177,49.7112693 159.087324,46.536791 C155.780356,46.8895108 153.536341,47.5165682 152.39465,48.4571544 L151.882857,48.9666386 L152.119069,48.692301 L157.355102,43.4798859 C157.040153,43.0095928 156.685835,42.4609175 156.370886,41.8730511 L154.402452,39.0904837 C152.000963,35.6808588 149.048312,31.3698388 146.961773,27.9210228 C145.898818,26.2358059 145.465763,25.2560286 145.662606,25.0600732 L153.142654,17.5745748 C153.300129,17.4178104 153.930028,17.8489124 154.992982,18.8286897 C159.717223,23.3356652 167.866538,25.3736019 174.874162,26.6277168 C178.377974,27.2547742 181.369993,27.7642584 183.928957,28.1169782 C186.448552,28.4696981 187.70835,28.9791822 187.747719,29.5670486 Z" id="path-1"></path>
    </defs>
    <g id="globalCoiffin'" stroke="none" stroke-width="1" fill="white" fill-rule="evenodd">
        <g id="Guidelines-v2.0" transform="translate(-39.000000, -1454.000000)" fill-rule="nonzero">
            <g id="Logo" transform="translate(46.000000, 1467.000000)">
                <g id="Coiff" transform="translate(95.056694, 36.362899) rotate(-4.000000) translate(-95.056694, -36.362899) ">
                    <path stroke="#FFFFFF" stroke-width="9" d="M28.4308189,9.69714741 L36.1010203,-5.04338456 L39.4576959,5.03824565 C39.3894519,4.83327765 40.8913765,11.8654995 41.8141269,15.2712472 C41.8656009,15.4612308 41.9171628,15.6490493 41.9688036,15.8346246 C42.2870457,16.9782544 42.5894958,18.0608513 42.9082521,19.1983519 C43.0900124,19.8469739 43.5987831,21.6595878 43.5913451,21.6330681 C43.8044123,22.3927481 43.9268791,22.831778 44.0146335,23.1516974 C44.06768,23.3450849 44.1073917,23.4926963 44.1372361,23.6082096 C44.1627052,23.7074867 44.1627052,23.7074867 44.1924989,23.8328668 C44.2303298,23.9357249 44.2303298,23.9357249 44.3156678,24.8879427 L44.3156678,27.1814334 L30.2560047,37.3916313 L27.5428454,34.4391469 C22.7205384,29.1914692 19.0132744,26.6829337 15.5493724,26.6753286 C14.9023904,31.1957596 15.758193,36.8772487 18.0379189,41.7353996 C20.3581901,46.6799535 23.8861538,50.2526449 28.4359229,52.0035939 L43.795579,31.9419291 L43.795579,45.1336203 C43.7963072,45.1435063 43.7980717,45.1837061 43.8019784,45.2721043 C43.8125123,45.4939696 43.820721,45.6814271 43.8290607,45.9024745 C43.903513,47.875847 43.8864875,49.8735819 43.7070441,51.8414634 C43.3664615,55.5764918 42.5805541,58.3467084 40.6480367,60.244662 L32.085633,68.8169318 C30.9274295,69.9764698 29.5345873,70.7078826 27.8585267,70.7412415 C14.5433067,71.2637646 4.74828327,63.4907919 0.258754316,51.3799349 C-3.69325158,40.8652421 -2.76842199,28.7955363 3.09344133,22.8651638 L11.6179635,14.284207 C12.0753603,13.8262832 12.5902931,13.3871313 13.085556,13.0331433 C18.1257932,9.36721329 23.3125408,8.36525541 28.4308189,9.69714741 Z M27.8585267,70.7412415 C27.8186618,70.7420349 27.7786367,70.7424335 27.7384508,70.7424335 L27.7384508,66.2424335 L27.9239,70.7386106 C27.9020995,70.7395097 27.8803084,70.7403867 27.8585267,70.7412415 Z M37.2815418,38.4357862 C39.6687959,35.1232542 41.0437885,33.2965111 41.7275055,32.5697095 L41.7993367,32.4950914 L49.4517292,24.7267518 L49.5986123,24.6012402 C50.9961735,23.4070231 52.8392401,22.8486489 55.1550509,22.6592941 C63.0634603,22.0980861 69.1905773,22.5926511 73.6944043,24.2982975 C80.164164,26.7824193 84.1473597,31.0057156 84.8985131,36.489163 C85.2090954,38.7564252 84.9341652,41.1042058 84.1409822,43.440348 C82.9795483,46.9101503 81.0813432,49.9698653 78.4667166,52.6102839 L70.949909,60.201241 C65.3452317,65.8612055 57.8062234,68.4993625 51.1751174,66.0452351 C41.6425129,62.6641717 36.2236477,58.7210685 35.4421662,53.1938762 C35.0238943,50.4970279 34.814047,48.5273599 34.8286393,46.4603805 C34.8520249,43.1478505 35.4862776,40.4617754 37.2815418,38.4357862 Z M51.3325246,43.510127 C51.4444504,44.0137921 51.7605918,44.6541818 52.3719137,45.4837801 C55.0180263,49.1049677 62.8351496,51.6275714 67.7564957,49.8356526 C68.7196922,47.636991 68.7320306,45.6758592 67.8728415,44.2603168 C66.5259944,42.041342 62.8840883,40.3397961 56.5030694,39.8673253 C52.9536375,40.3134667 52.7578891,40.4592431 52.1318161,41.7384831 C51.9604738,42.0885827 51.8222354,42.395815 51.4257155,43.2980758 L51.3325246,43.510127 Z M95.8315766,19.2381192 L103.345461,13.1973626 L102.708432,19.2145966 L114.49179,19.5416272 L102.430916,29.1386945 C102.784635,31.7365577 103.416295,34.3532984 104.334347,37.0284433 C105.03669,39.0750255 105.559868,40.8383483 105.89319,42.3624242 C106.29715,42.393518 106.692987,42.4292818 107.083051,42.4699836 L120.863552,43.9079304 L101.950727,59.1128185 L97.2379963,58.6210616 C94.713915,58.3576826 92.2221887,58.2529776 89.7424567,58.3144944 C86.6887213,58.390251 84.443228,58.3514909 82.697488,58.169329 L71.8662826,57.0391308 L86.3938218,45.2976173 C86.3829096,45.2570209 86.3720415,45.2165331 86.3611952,45.1760713 C85.726214,42.8072886 85.270402,40.8983081 84.9177365,39.0138548 C84.6693123,37.68641 84.4844493,36.4250827 84.3696366,35.2200573 C83.4333121,35.0884266 82.3479201,34.9037855 81.0123425,34.6562655 L71.3695826,32.8691919 L89.5869932,18.2233795 L91.6330339,18.6171091 C93.6018009,18.9959685 94.7872222,19.1728737 95.8315766,19.2381192 Z M137.700949,43.4657698 L135.851957,45.3064219 C136.134361,46.2808548 136.389164,47.2486419 136.618918,48.2258923 C136.804652,49.0158999 137.029664,49.9053645 137.3488,51.1213744 C137.481646,51.627561 138.073351,53.8586341 138.266858,54.5939205 C138.386848,55.0043875 138.479614,55.362469 138.545297,55.6812296 C138.597919,55.9366035 138.636606,56.1787494 138.658786,56.4409594 C138.678491,56.6738998 138.684479,56.9106322 138.667735,57.1762872 C138.631762,57.7470086 138.513889,58.3095138 138.188691,58.9569764 L137.855036,59.6212759 L137.325459,60.1429726 L129.783414,67.5727025 C128.766758,68.5847729 127.424193,68.9962042 126.14301,68.8715847 C125.43407,68.8026266 124.869175,68.5975541 124.359614,68.3164736 C123.911836,68.0694735 123.590092,67.8113029 123.274901,67.507878 C122.9808,67.2247558 122.705974,66.9064002 122.397186,66.5123044 C121.915608,65.8976813 121.304556,65.0310685 120.575328,63.9317905 C120.435902,63.721612 120.322159,63.5762293 120.240354,63.4827107 L104.688602,67.3531112 L118.99097,53.1152581 C118.706823,52.2778425 118.407192,51.4896039 118.073031,50.7067507 C117.956865,50.7358751 117.845591,50.7656094 117.739243,50.7959239 C117.395549,50.8938946 117.12492,50.991915 116.931501,51.0818821 C116.90856,51.0925528 116.889283,51.1017824 116.873624,51.1093233 L116.634277,51.3475908 L110.049395,45.2222367 L110.398409,44.8168907 L113.151115,42.076602 L112.300042,40.8735232 C109.219985,36.5004707 106.575224,32.561196 104.732293,29.5135283 C104.105556,28.5198936 103.63441,27.683679 103.314317,26.9739615 C103.080045,26.454527 102.906848,25.9688381 102.799321,25.4380913 C102.497795,23.9497649 102.646475,22.4742906 104.056108,21.0710388 L111.544515,13.5771967 C113.091156,12.037532 114.844301,11.9711584 116.390513,12.503599 C116.933048,12.6904218 117.377817,12.9352054 117.833927,13.2451141 C118.363629,13.6050263 118.937587,14.0831108 119.675852,14.764507 C122.883383,17.824526 128.67147,19.855785 137.243547,21.3898813 C141.193221,22.0967321 143.867266,22.540396 146.129472,22.8522217 C147.68463,23.0699293 148.945491,23.3539349 149.964978,23.7473023 C152.078436,24.5627768 153.640684,25.8656247 153.814302,28.4581498 L153.951208,30.5024811 L137.870856,46.5102988 L137.700949,43.4657698 Z M176.124309,44.2739828 L174.275316,46.1146348 C174.557721,47.0890678 174.812523,48.0568549 175.042278,49.0341052 C175.228011,49.8241129 175.453023,50.7135774 175.772159,51.9295874 C175.905005,52.4357739 176.49671,54.666847 176.690218,55.4021334 C176.810208,55.8126005 176.902974,56.1706819 176.968657,56.4894426 C177.021278,56.7448164 177.059965,56.9869624 177.082146,57.2491723 C177.101851,57.4821128 177.107838,57.7188451 177.091094,57.9845001 C177.055122,58.5552216 176.937249,59.1177268 176.612051,59.7651893 L176.278396,60.4294888 L175.748819,60.9511855 L168.206773,68.3809154 C167.190117,69.3929858 165.847552,69.8044171 164.56637,69.6797976 C163.85743,69.6108396 163.292534,69.405767 162.782973,69.1246865 C162.335196,68.8776864 162.013451,68.6195159 161.698261,68.3160909 C161.40416,68.0329687 161.129333,67.7146131 160.820546,67.3205173 C160.338968,66.7058943 159.727916,65.8392814 158.998688,64.7400034 C158.859262,64.529825 158.745518,64.3844422 158.663714,64.2909236 L143.111962,68.1613241 L157.41433,53.923471 C157.130183,53.0860555 156.830552,52.2978168 156.49639,51.5149637 C156.380225,51.5440881 156.26895,51.5738224 156.162603,51.6041369 C155.818909,51.7021075 155.54828,51.8001279 155.354861,51.8900951 C155.33192,51.9007658 155.312642,51.9099953 155.296984,51.9175363 L155.057636,52.1558038 L148.472755,46.0304497 L148.821769,45.6251036 L151.574474,42.884815 L150.723402,41.6817362 C147.643345,37.3086837 144.998583,33.3694089 143.155652,30.3217413 C142.528915,29.3281065 142.057769,28.491892 141.737677,27.7821744 C141.503404,27.2627399 141.330207,26.777051 141.222681,26.2463043 C140.921154,24.7579779 141.069835,23.2825036 142.479467,21.8792517 L149.967875,14.3854096 C151.514516,12.845745 153.267661,12.7793713 154.813873,13.311812 C155.356408,13.4986348 155.801176,13.7434184 156.257286,14.0533271 C156.786989,14.4132393 157.360947,14.8913238 158.099211,15.5727199 C161.306743,18.6327389 167.09483,20.6639979 175.666907,22.1980942 C179.616581,22.9049451 182.290626,23.3486089 184.552832,23.6604347 C186.10799,23.8781423 187.368851,24.1621478 188.388338,24.5555153 C190.501795,25.3709897 192.064043,26.6738376 192.237662,29.2663627 L192.374568,31.310694 L176.294216,47.3185117 L176.124309,44.2739828 Z" fill="#D1D1D1" fill-rule="evenodd"></path>
                    <path stroke="#2D2D2D" stroke-width="3" d="M29.9079422,13.3576205 L35.4924267,2.62540269 L36.6113186,5.98594609 C36.4795621,5.59022116 37.9561187,12.5036662 38.918525,16.055779 C38.9717654,16.2522821 39.0251323,16.446675 39.0786198,16.638887 C39.397382,17.7843855 39.700311,18.8686967 40.019529,20.007845 C40.2014961,20.6572051 40.7103987,22.4702886 40.7028056,22.4432158 C40.9143143,23.1973391 41.0357758,23.632765 41.1215013,23.945288 C41.1709354,24.125506 41.2072865,24.2606259 41.2326143,24.3586576 C41.2518897,24.4339572 41.2518897,24.4339572 41.2687023,24.5047398 C41.2862344,24.5614008 41.2862344,24.5614008 41.3156678,24.8879427 L41.3156678,25.6524396 L30.6561899,33.3934059 L29.7518035,32.4092445 C23.4080014,25.5058621 18.3927057,22.6127482 13.0356421,23.983491 C11.5928045,29.444624 12.4175488,36.8202222 15.3220725,43.0098322 C18.5373128,49.8615869 23.9217592,54.5046755 30.9940002,55.8316139 C31.2588135,54.5733406 31.4038139,53.7482629 31.4038139,53.5703825 L31.4038139,53.0620991 L40.795579,40.7952591 L40.795579,45.221924 C40.795579,45.196765 40.8185731,45.681069 40.8311936,46.0155793 C40.9012106,47.8713952 40.8851892,49.7513246 40.7194392,51.5690354 C40.4407054,54.6257941 39.8044965,56.8683436 38.5254952,58.1245634 L29.9630916,66.6968332 C29.2925103,67.3681872 28.5668684,67.7424335 27.8002672,67.7411592 C15.8616176,68.2335804 7.14688114,61.3303142 3.06695116,50.3244584 C-0.513489322,40.7983513 0.318520002,29.9400182 5.22175169,24.979471 L13.740505,16.4043056 C14.0829877,16.0614282 14.4720927,15.7295865 14.8501665,15.4592822 C19.882462,11.7991284 24.8875247,11.2598669 29.9079422,13.3576205 Z M39.6178546,40.3251335 C41.9576724,37.0763949 43.352351,35.2208362 43.9365467,34.6004022 L51.4533543,26.9697018 L51.5475103,26.8819849 C52.3664506,26.1821998 53.6546749,25.7919202 55.3674072,25.6517688 C62.8809088,25.1185848 68.6110753,25.581109 72.6190689,27.0989498 C78.1438031,29.2202207 81.3388075,32.6078148 81.9262707,36.8963175 C82.1705076,38.6792559 81.9500183,40.562135 81.2961234,42.4880991 C80.2817061,45.5186867 78.6288343,48.1829491 76.3350104,50.4994005 L68.8182028,58.0903576 C63.9661033,62.9903205 57.5913561,65.2210627 52.1779587,63.2178141 C43.6283036,60.1853873 38.9824323,56.8047624 38.406722,52.7340838 C37.4331485,46.4568748 37.447527,42.6488264 39.6178546,40.3251335 Z M48.3059388,42.6664771 C48.174311,44.0375655 48.6994133,45.5571264 49.9496958,47.2537689 C53.5775723,52.2184939 63.7472569,55.3068462 69.9669263,52.140919 C74.2303984,44.2783733 70.1152381,37.7802402 56.422716,36.8541605 C51.660914,37.4521569 50.5810039,38.0826478 49.4372175,40.4197191 C49.2407425,40.8211717 49.0939364,41.1474456 48.6792378,42.0910711 L48.4597986,42.5903937 L48.3059388,42.6664771 Z M97.6704278,25.2589757 L97.7570546,25.2572868 L97.7825607,25.2559197 C97.8329143,25.2532208 97.8827296,25.2505861 97.9320468,25.248016 L98.6710565,24.6538921 L98.5773434,24.5373257 L97.6704278,25.2589757 Z M96.8489268,22.2695053 L99.6026229,20.0556826 L99.3769366,22.1874636 C100.211659,22.1664189 101.031716,22.1692169 102.083045,22.1983951 L106.191551,22.3124209 L99.2617672,27.8265814 C99.5739151,31.189719 100.315385,34.559695 101.496789,38.002232 C102.579332,41.1566911 103.189881,43.5570532 103.305142,45.2297126 C104.555527,45.2684078 105.691808,45.3411003 106.771702,45.4537835 L113.304787,46.1354879 L101.03363,56.0008345 L97.5493453,55.6372617 C94.8994533,55.3607548 92.27907,55.2506435 89.6680561,55.3154171 C86.7325775,55.38824 84.5984791,55.3514027 83.0088371,55.1855291 L79.3984353,54.8087964 L89.8041364,46.3986535 C89.7334229,46.141585 89.675834,45.9323239 89.6707682,45.9138822 C89.5079818,45.3212681 89.381807,44.8578449 89.2588908,44.3993086 C88.642115,42.0984406 88.2026034,40.2577278 87.8665427,38.4620013 C87.4546169,36.2608929 87.2338873,34.2791493 87.2321885,32.4789922 C85.8449412,32.4335963 84.2830595,32.2113363 81.5590176,31.706495 L78.3447643,31.1108038 L90.3841169,21.4318157 L91.0661305,21.5630589 C93.868302,22.1022944 95.2855762,22.2682587 96.8489268,22.2695053 Z M114.794809,48.9064871 L114.83241,48.8628176 L113.695709,47.884088 L114.753969,48.9471431 L114.794809,48.9064871 Z M140.336388,36.8496342 C140.284269,36.8287399 140.22561,36.8067712 140.160638,36.784093 L132.455475,44.4544999 C132.938924,45.964089 133.349695,47.4286745 133.698542,48.9124816 C133.891299,49.7323615 134.121954,50.6441315 134.447068,51.8829198 C134.585277,52.4095413 135.209754,54.7640205 135.369736,55.3756747 C135.765776,56.7161379 135.821416,56.9861615 135.507843,57.6104788 L135.396625,57.831912 L135.220099,58.0058109 L127.666894,65.4465923 C127.049388,66.0613128 126.361083,65.9943619 125.808622,65.6896172 C125.635639,65.5941975 125.497816,65.483607 125.355499,65.346602 C125.182222,65.1797934 124.98851,64.9554 124.75864,64.6620243 C124.334024,64.1201001 123.764617,63.3125498 123.075277,62.2734005 C122.032365,60.7012572 120.999122,60.202364 119.766425,60.5091481 L114.498979,61.8200697 L122.401863,53.9528332 C121.673677,51.4941735 120.911481,49.5195369 119.8117,47.3417397 C117.364899,47.6717953 115.739168,48.1715218 114.973093,48.7681987 L114.517757,49.2214807 L112.322797,47.179696 L112.559009,46.9053584 L112.637449,46.821033 L117.016842,42.461395 C116.894779,42.2583936 116.780648,42.0594417 116.670641,41.8571588 L114.752742,39.1460216 C111.709545,34.8253013 109.09791,30.9353677 107.269706,27.9130493 C105.533366,25.1602395 105.120402,24.244606 106.1782,23.1915864 L113.661035,15.7033068 C114.202772,15.1640129 114.833001,15.1401526 115.413748,15.3401338 C115.659686,15.4248231 115.892355,15.5528751 116.147911,15.7265155 C116.53073,15.9866259 117.003875,16.3807371 117.605032,16.9351535 C121.369382,20.5263824 127.592738,22.7103942 136.715051,24.342963 C140.70118,25.056338 143.4086,25.5055393 145.713556,25.8232508 C149.015528,26.2854961 150.705758,26.9376686 150.821007,28.658607 L150.866642,29.3400508 L140.49358,39.6663223 L140.336388,36.8496342 Z M153.218169,49.7147001 L153.255769,49.6710306 L152.119069,48.692301 L153.177329,49.755356 L153.218169,49.7147001 Z M178.759748,37.6578471 C178.707628,37.6369528 178.64897,37.6149842 178.583998,37.592306 L170.878832,45.2627152 C171.362284,46.7723019 171.773055,48.2368874 172.121902,49.7206945 C172.314658,50.5405744 172.545313,51.4523444 172.870427,52.6911327 C173.008636,53.2177542 173.633114,55.5722334 173.793095,56.1838877 C174.189136,57.5243509 174.244776,57.7943745 173.931203,58.4186917 L173.819985,58.6401249 L173.643459,58.8140238 L166.090254,66.2548053 C165.472748,66.8695257 164.784443,66.8025748 164.231982,66.4978301 C164.058999,66.4024104 163.921176,66.29182 163.778858,66.154815 C163.605581,65.9880064 163.411869,65.7636129 163.182,65.4702373 C162.757383,64.9283131 162.187977,64.1207628 161.498637,63.0816134 C160.455724,61.5094701 159.422481,61.010577 158.189785,61.317361 L152.922338,62.6282826 L160.825223,54.7610462 C160.097037,52.3023865 159.334841,50.3277498 158.23506,48.1499527 C155.788259,48.4800082 154.162528,48.9797348 153.396453,49.5764116 L152.941117,50.0296937 L150.746156,47.987909 L150.982368,47.7135713 L151.060809,47.6292459 L155.440201,43.269608 C155.318139,43.0666066 155.204008,42.8676546 155.094001,42.6653718 L153.176102,39.9542345 C150.132904,35.6335142 147.521269,31.7435807 145.693066,28.7212623 C143.956725,25.9684525 143.543762,25.0528189 144.60156,23.9997993 L152.084395,16.5115197 C152.626132,15.9722259 153.25636,15.9483656 153.837107,16.1483467 C154.083046,16.2330361 154.315715,16.3610881 154.571271,16.5347285 C154.95409,16.7948389 155.427235,17.18895 156.028392,17.7433664 C159.792741,21.3345953 166.016098,23.5186071 175.13841,25.1511759 C179.124539,25.8645509 181.83196,26.3137522 184.136915,26.6314637 C187.438888,27.0937091 189.129117,27.7458816 189.244366,29.46682 L189.290002,30.1482637 L178.91694,40.4745352 L178.759748,37.6578471 Z"></path>
                </g>
                <path d="M10.4833953,88.1485956 L14.3823338,84.5837582 C16.1236072,84.7221985 16.8049751,84.6875884 17.5620505,84.6010632 L17.7134656,84.4626229 L17.7134656,84.5837582 C18.1866378,84.514538 18.7922981,84.4280129 19.7764962,84.3587927 L17.8838076,86.0719913 C18.2055647,87.7159697 18.7733712,89.3253381 19.5872273,90.9347065 C20.4010834,92.5440748 20.798548,93.6515972 20.798548,94.2399684 L20.5335716,94.4822389 C21.460989,94.3957137 22.3126988,94.3437986 23.1265549,94.3437986 L24.5271445,94.3437986 L20.628206,97.9086361 L19.2465434,97.9086361 C17.978442,97.9086361 16.6914138,97.9778562 15.3854587,98.1336015 C14.0795036,98.2893469 13.0574518,98.375872 12.3003763,98.375872 L15.9343384,95.036 C15.0826285,93.0286159 13.8902347,90.3636403 13.8334541,88.1485956 C13.019598,88.2697309 12.3760839,88.2870359 10.4833953,88.1485956 Z M13.2847081,88.9186282 L13.6335005,90.5158853 L14.2438871,92.0795158 C14.4764153,92.3989672 13.6625665,92.533473 13.4300382,92.2476481 L12.7905856,90.5999514 L12.4127272,88.9186282 C12.4127272,88.7504959 12.5580573,88.6664298 12.8487176,88.6664298 C13.1393779,88.6664298 13.2847081,88.7504959 13.2847081,88.9186282 Z M14.324037,92.8602973 C14.4703261,93.1815221 14.5288417,93.41514 14.4995839,93.5027468 C14.7629042,93.882376 14.2362636,94.466421 13.8559121,94.0283873 C13.7388808,93.882376 13.6803652,93.765567 13.6803652,93.6779603 C13.6803652,93.5903535 13.6511074,93.4735445 13.5925918,93.3275333 C13.4463027,93.0939153 13.4755605,92.8894996 13.709623,92.7142861 C13.9729433,92.5682748 14.177748,92.6266793 14.324037,92.8602973 Z M36.3265086,77.7576445 C36.0975042,77.9615465 35.8532328,77.6217099 36.0517033,77.4178079 C37.5478657,75.9395187 38.234879,75.4467557 38.1127433,75.9565106 C37.9753406,76.4832573 38.1127433,78.0465056 38.5096843,80.6462556 C38.5096843,80.6632474 38.5554852,80.8841412 38.662354,81.2749533 C38.7539557,81.6827572 38.7997566,81.9546265 38.7844897,82.0905611 C38.7844897,82.3794222 38.3264808,82.3794222 38.3722817,82.0565774 L38.3722817,81.9716183 C38.3722817,81.9886101 38.3875486,82.005602 38.4028156,82.0565774 C38.1432772,80.9181248 37.9906076,79.8816232 37.9753406,78.9810563 C37.9600737,78.0804893 37.8837389,77.1969141 37.7463362,76.3473227 C37.3646621,76.7381347 37.1509246,76.9420367 37.1356577,76.9590285 L36.3265086,77.7576445 Z M36.8829899,78.1809173 L33.1379901,82.0977466 L33.1379901,80.4077441 L36.8829899,76.4909149 L36.8829899,78.1809173 Z M40.8449237,94.5963376 C41.4157648,96.1030894 41.6367356,96.9362346 41.4894217,97.0780465 L37.9723039,100.44608 C37.9170612,100.49926 37.7697473,100.392901 37.5487766,100.14473 C34.694571,96.6526107 32.9636334,94.7026965 31.4536665,93.3554831 C29.9436997,92.0082697 28.6731179,91.228304 26.8316949,90.040629 C28.0102056,92.0259961 29.0782309,93.9759103 29.3176159,95.8194656 C29.3912728,96.014457 29.4281013,96.1385424 29.4465155,96.1562689 L25.9293976,99.542029 C25.8373265,99.2938581 25.800498,99.1874991 25.800498,99.2052256 C25.5242846,97.0071406 24.4746735,94.720423 22.6884932,92.345073 C20.9023129,89.969723 20.0000156,87.4348346 20.0000156,84.7581342 L23.5171335,81.3546476 C23.5171335,81.9396219 23.5723762,82.5245961 23.6828616,83.0918439 L24.3273596,82.4891431 C27.1999795,84.6340487 29.3176159,86.1053476 30.6802689,86.8675868 C32.0429219,87.629826 33.3687464,88.5693301 34.6393283,89.6506461 C33.9027591,87.1157577 33.1846041,84.4922368 33.2582611,83.2868353 L36.7937932,79.9010752 C36.7201362,80.9823913 37.3093916,83.3045618 37.9723039,85.6267323 C38.30376,86.7966808 38.6352161,87.9134499 38.9666723,88.9770394 C39.2981284,90.040629 39.5375134,90.8383211 39.7032415,91.3878424 C39.8873838,92.0259961 40.2740826,93.0895857 40.8449237,94.5963376 Z M41.8267541,95.0242577 C43.2052443,97.5404524 43.3492657,96.8065623 41.4769879,98.5713933 C41.2506686,98.7985497 40.839179,98.501499 41.0654983,98.2743425 C42.7731802,96.6667737 42.6085844,97.5753995 41.353541,95.216467 C41.2095197,94.9543634 41.6621583,94.7971012 41.8267541,95.0242577 Z M40.6987913,98.9802745 C41.1376584,98.7174543 41.6057834,99.4183083 41.1376584,99.6519262 L41.049885,99.7103307 C41.0206272,99.739533 40.9621116,99.8271397 40.8743381,99.9147465 C40.6695334,100.119162 40.4939866,100.119162 40.3184397,99.9147465 C39.9380882,99.5643195 40.4647288,99.1262858 40.6987913,98.9802745 Z M41.8047691,82.2794624 L45.4951351,78.6826783 C47.4027156,77.6176111 49.203329,77.4255498 51.0039423,77.6874516 L53.1611128,75.5747774 C54.2129563,76.412863 55.2647997,77.6176111 56.3166432,79.1890217 C58.313363,79.8874263 60.4527056,80.6032911 62.8238103,80.8302727 L65.7475786,81.1270946 C66.9955284,81.2667756 68.1008555,81.179475 69.0635596,80.882653 L70.8285173,79.1541014 C70.739378,79.5906043 70.5432716,79.9398067 70.2580259,80.2191686 L66.5854878,83.8334128 C65.0166365,85.3699031 60.898402,84.6365782 59.1334443,84.4270568 L59.0086493,84.4270568 C60.7914348,88.8444664 61.8076226,93.7856795 61.5758605,97.2078624 L57.8854944,100.804647 C57.8854944,100.822107 57.689388,100.577665 57.2971752,100.088782 C56.5127496,99.1110152 55.4074226,97.888807 54.3555791,97.1031017 C53.8207435,96.7189792 53.4107028,96.6316786 53.1254571,96.8586601 L56.8158231,93.2444159 C56.833651,93.2269558 56.9049624,93.1920355 56.9941017,93.1571153 C56.0670532,89.5254109 54.5516855,85.7365655 52.6262772,82.8032659 C48.828944,81.476297 45.4594794,80.2017084 41.8047691,82.2794624 Z M60.800174,79.0644551 C61.5746063,80.0116735 64.7530054,80.1974026 65.7210457,80.2716942 C65.8823858,80.2716942 65.9630558,80.3645588 65.9630558,80.5502879 C65.9630558,80.717444 65.8823858,80.8103086 65.7210457,80.8103086 C64.4303253,80.736017 61.3809982,80.6060066 60.3968239,79.3616217 C60.2032158,79.0644551 60.6065659,78.7672885 60.800174,79.0644551 Z M66.6949526,79.7690962 L67.0167885,79.7690962 C67.5141713,79.6522872 67.7482338,80.4991524 67.1923354,80.6159614 C66.9582729,80.6451637 66.7827261,80.6451637 66.6949526,80.6451637 C66.4023745,80.6451637 66.2560855,80.4991524 66.2560855,80.2071299 C66.2560855,79.9151075 66.4023745,79.7690962 66.6949526,79.7690962 Z M52.6068459,82.7797208 C53.2536533,82.7964758 53.6389854,83.0310457 53.7628421,83.4834305 C53.8866989,83.9358154 54.0656031,84.5389951 54.2995547,85.2594599 C54.3958877,85.5778048 54.0105556,85.7118447 53.9142226,85.4270098 C53.6940328,84.7065451 53.5564143,84.2038953 53.5151287,83.8855504 C53.4600812,83.5672055 53.184844,83.3661456 52.703179,83.2656156 C52.4279418,83.3493906 52.3316087,82.8634957 52.6068459,82.7797208 Z M62.3277779,96.038056 C62.2692622,95.8628425 62.2400044,95.7460335 62.2400044,95.6584267 C62.2400044,95.3664042 62.3862935,95.220393 62.6788716,95.220393 C62.9714497,95.220393 63.1177387,95.3664042 63.1177387,95.6584267 L63.1177387,95.687629 L63.1469966,95.7752357 C63.2640278,96.3300784 62.5325825,96.5928987 62.3277779,96.038056 Z M63.3058699,96.9096651 C63.3058699,97.4960392 63.3503949,97.7892263 63.4617074,97.7892263 C63.5507573,97.8019736 63.1055075,98.0441716 62.1482202,98.5285676 C61.8588078,98.694282 61.3690329,98.4138422 61.7252328,98.2481278 L62.2150077,98.0059298 L62.816095,97.6872482 C62.7047826,97.534281 62.6602576,97.2665885 62.6602576,96.8841706 C62.6602576,96.6419726 63.3281324,96.6547198 63.3058699,96.9096651 Z M70.5821295,79.8972018 L67.3600801,83.1661421 C67.309472,82.9778785 66.9720846,81.9509863 66.8371297,81.7627227 L70.059179,78.4937823 C70.1435259,78.5793567 70.2447421,78.8189649 70.3628277,79.1783772 L70.5821295,79.8972018 Z M66.8011389,84.1231764 L70.1903975,80.7098783 C70.1903975,80.7456196 70.42108,81.6927652 70.8824451,83.5691856 C71.3438101,85.445606 71.82292,87.3756384 72.3375194,89.3771535 L72.656926,89.0554814 C73.029567,88.75168 73.7393594,88.3585253 74.804048,87.8760172 C73.7216146,85.5885713 72.9763326,83.7121509 72.9585878,82.6577814 L76.3478464,79.2266126 C76.383336,80.5133009 77.2528316,82.7828761 78.9563333,86.0532088 C80.659835,89.3235415 82.2568679,92.4151675 83.7296871,95.3102162 L86.4623877,92.5581329 C86.4623877,92.9155463 86.4446429,93.1836064 86.4268981,93.3444424 C86.1429811,95.4353109 86.160726,99.170281 86.2317052,100.957348 C86.3204292,101.350503 86.3736637,101.636434 86.3559189,101.833011 L86.3204292,101.975976 L82.9311706,105.389274 C82.8779362,105.425016 82.8601914,105.085473 82.8424466,104.370646 C82.4698056,102.976734 81.4760963,100.778641 79.8613186,97.7942394 C78.246541,94.8098374 76.7737218,91.9326594 75.4428611,89.1984468 L75.2476682,89.3950242 C74.804048,89.841791 73.7571042,90.3064284 72.6746708,90.7531952 C72.9940774,92.0220128 73.2779943,93.1121237 73.5086769,94.0056572 C73.7393594,94.8991907 73.8635731,95.3638282 73.8813179,95.3995695 L70.4920593,98.8128676 C70.4565697,98.7771263 70.2436319,97.9908168 69.8709909,96.4718098 C69.4983499,94.9528027 69.0724745,93.2729597 68.6288543,91.4501513 C68.1674892,89.6273429 67.7593586,87.9474999 67.3867176,86.4284929 C67.0140766,84.9094859 66.8188837,84.141047 66.8011389,84.1231764 Z M75.5568659,90.5813738 C75.9118371,91.4335731 76.2976753,92.2857724 76.6989471,93.1058132 C77.0847853,93.9419333 77.4706235,94.7780534 77.8255947,95.6141734 C78.0725312,95.7428073 77.9336294,96.1126296 77.6712594,96.0322335 C76.6835135,94.3439141 75.8964036,92.5108816 75.1555942,90.7100077 C75.0784265,90.4366607 75.4796983,90.3241061 75.5568659,90.5813738 Z M105.615178,94.6790156 C106.902085,95.6848388 107.466209,96.2495115 107.342806,96.3730337 L104.099096,99.6199018 C104.063838,99.6728398 103.852291,99.6551938 103.464456,99.5846097 C101.38425,99.2140433 99.6566218,98.7552467 98.2639416,98.2788041 C96.8712613,97.8023615 94.1035297,97.6082553 91.7060042,97.7317774 C90.9303342,97.7847155 90.1370353,97.9964677 89.3084787,98.4023262 L87.2987882,100.413973 C87.3164171,100.378681 87.3164171,100.343389 87.3340459,100.325743 C87.3516748,100.308097 87.3516748,100.272805 87.3516748,100.237513 C87.6337366,98.966999 87.193015,94.3966792 86.9814686,93.426148 C86.0647677,89.2440408 85.8708502,86.8971198 83.7730154,84.1266943 C83.3146649,84.0031722 83.0149742,83.9149421 82.8563145,83.8972961 L83.2617783,83.4914375 C82.9973454,83.1385171 82.5918815,82.6973666 82.0806445,82.1679859 L85.3243554,78.9211178 C86.0647677,79.6975428 86.6288914,80.3504456 87.0167264,80.8798263 C87.8100252,81.1268706 88.7972416,81.462145 90.0136332,81.8856495 C92.4287876,82.7326586 95.3728079,83.1032251 98.1405395,83.1032251 L102.212807,83.1032251 L98.9690961,86.3500931 C95.8664161,86.3500931 93.6099215,86.4383232 90.4543548,86.0148187 C90.048891,85.9618806 89.6434271,85.8912966 89.2555921,85.8030664 C89.4142519,86.4206772 89.5552828,87.0912261 89.6963137,87.814713 C89.8373446,88.5381999 90.0136332,89.3146249 90.2075507,90.1792799 C90.2075507,90.3204481 90.2428085,90.5322004 90.2956951,90.7968907 L92.5345608,88.5558459 C93.7685813,88.6970141 95.090746,88.7499521 96.5010552,88.7146601 C97.9113643,88.6970141 99.2687868,88.6793681 100.555694,88.6793681 L97.3119829,91.9262361 C96.2189933,91.9262361 95.0731172,91.9438821 93.8743544,91.9615282 C92.6755917,91.9791742 91.5297155,91.9615282 90.436726,91.8909441 C90.5777569,93.443794 90.7187878,95.5789627 90.6306435,96.637724 L91.1771383,96.0906973 C92.111468,95.1554582 93.8743544,94.5554934 94.9320863,94.4849093 C96.9946634,94.3966792 99.4274466,94.5731394 100.837756,94.8731218 C100.784869,94.4849093 100.802498,94.0966968 100.855385,93.6908383 L104.116724,90.4086782 C104.169611,90.3910322 104.204869,90.3557402 104.222498,90.3380941 L104.099096,90.4616163 C103.834663,92.2615105 104.328271,93.6731923 105.615178,94.6790156 Z M90.8258239,81.6744406 C90.5625037,81.6160361 90.4747302,81.4408226 90.5917615,81.1780024 C90.6502771,80.9443844 90.8258239,80.8567776 91.0891442,80.9151821 C91.2061755,81.0027889 91.3524645,81.0611934 91.4987536,81.0903956 C91.9668786,81.0903956 92.054652,81.8496541 91.5572692,81.8788563 C91.3524645,81.8788563 91.1184021,81.8204518 90.8258239,81.6744406 Z M93.2289796,81.6436298 C93.0831708,81.5852253 93.0345678,81.4100119 93.0993718,81.1471916 C93.1317737,80.9135736 93.2289796,80.8259669 93.3747883,80.8843714 C94.0390283,81.1471916 94.5250576,81.3224051 94.8652781,81.4684164 C95.1892976,81.6144276 95.4647142,81.7020343 95.6915279,81.7604388 C95.8211357,81.7896411 95.9831454,81.8480456 96.1289542,81.8480456 C96.3557679,81.8772478 96.6473854,81.9064501 96.9876059,81.9064501 C97.3278264,81.9356523 97.8138557,81.9356523 98.4780957,81.9356523 C98.6239045,81.9356523 98.6887084,82.0816636 98.6887084,82.3444838 C98.6887084,82.607304 98.6239045,82.724113 98.4780957,82.724113 C95.2541015,82.6949108 96.274763,82.8117198 93.2289796,81.6436298 Z M99.9871702,86.7210967 C99.8431318,86.7210967 99.6270741,86.8159062 99.357002,86.9865633 L102.669886,83.4975729 C102.939959,83.3269158 103.156016,83.2321063 103.300055,83.2510682 C103.444093,83.2700301 103.69616,83.2700301 104.038252,83.2700301 L100.725367,86.7400586 C100.383276,86.7400586 100.131209,86.7400586 99.9871702,86.7210967 Z M91.1788771,94.5060832 C90.9155568,94.5060832 90.7692677,94.4398795 90.7692677,94.3207128 L90.7692677,93.5924721 L90.5937209,92.8509907 C90.5644631,92.7450648 90.6522365,92.6788611 90.9155568,92.6391388 C91.1788771,92.6258981 91.354424,92.6788611 91.3836818,92.784787 L91.5592286,93.5659906 L91.5884864,94.3207128 C91.5884864,94.4398795 91.4421974,94.5060832 91.1788771,94.5060832 Z M124.530867,87.5828913 C129.262855,88.9405515 129.972653,90.0866283 129.972653,94.8119911 C129.972653,94.9354148 129.899853,95.0588384 129.736053,95.217526 L126.387262,98.4618049 C125.641064,99.1847149 123.23867,100.13684 121.054676,99.9076249 C118.852482,99.6960415 116.850487,98.2678535 116.850487,94.159609 L120.199278,90.91533 C120.199278,96.4164987 123.748269,97.1394086 126.587462,96.5751862 C126.423662,93.0487961 125.349865,92.0437749 121.182076,90.8271703 C120.872677,90.7390105 120.417678,90.6332188 119.798879,90.5450591 L116.795887,93.436699 C116.795887,93.4014351 116.741287,93.2251156 116.632088,92.9253724 C116.522888,92.6256292 116.468288,92.4493097 116.450088,92.3787819 L118.561283,90.3334756 C117.760485,90.2276839 117.014287,90.1218922 116.304489,90.0161005 C115.59469,89.9103088 115.230691,89.839781 115.194291,89.8221491 C112.446099,88.4644889 112.737298,85.0615224 114.284294,83.5275426 L117.614885,80.2832637 C118.488483,79.4369301 119.780679,79.1900828 121.182076,80.177472 L122.965671,78.4495408 C122.983871,80.6182708 123.29327,82.0464588 123.52987,82.8927924 C123.875669,83.4393829 124.003068,83.7391261 123.948469,83.7920219 L120.708877,86.9305091 C122.164873,87.1420926 123.930269,87.4242038 124.530867,87.5828913 Z M119.168095,86.3563737 C119.201798,86.3887364 119.808446,86.4858244 120.98804,86.6314564 C120.903783,86.5181871 120.819526,86.2916484 120.718418,85.9356591 C119.960108,84.8191471 118.72996,83.1524699 117.263894,82.8935686 C117.129083,84.2042565 117.634623,85.6282138 119.168095,86.3563737 Z M126.805036,87.6223711 C126.541715,87.5639666 126.424684,87.4179554 126.512458,87.1551351 C126.541715,86.9215171 126.688004,86.8047081 126.980583,86.8339104 C127.302418,86.8923149 127.565739,86.9507194 127.799801,87.0383261 C128.063122,87.0091239 128.209411,87.1551351 128.209411,87.5055621 C128.180153,87.7683823 128.033864,87.8851913 127.770543,87.8851913 C127.653512,87.8559891 127.565739,87.8267868 127.536481,87.7975846 C127.390192,87.7683823 127.273161,87.7099778 127.126872,87.6807756 C126.980583,87.6515733 126.863551,87.6515733 126.805036,87.6223711 Z M126.527201,88.1037526 C126.231187,88.1037526 126.28757,87.3736964 126.555393,87.3736964 C127.062846,87.6073144 127.598492,87.8117301 128.035466,88.4833818 C128.303288,88.5709886 128.218713,89.330247 127.979082,89.1842358 C127.302477,88.5125841 127.316573,88.4541796 126.527201,88.1037526 Z M122.736059,95.3354788 C122.580018,95.3354788 122.490851,95.2770743 122.446268,95.1602653 C121.532309,94.6151567 121.264809,92.5515311 121.175643,91.8506772 C121.175643,91.6754637 121.287101,91.597591 121.487726,91.597591 C121.688351,91.597591 121.777518,91.6754637 121.777518,91.8506772 C121.866684,92.4931266 121.978143,92.9798308 122.089601,93.2718533 C122.156476,93.5249394 122.223351,93.7390892 122.312518,93.8753664 C122.490851,94.2841979 122.646893,94.5567522 122.802934,94.6930294 C122.958976,94.8487747 123.025851,94.9461155 123.048143,94.9655837 L123.048143,95.0823927 C123.048143,95.2576062 122.936684,95.3354788 122.736059,95.3354788 Z M123.98276,96.0583821 C123.602408,95.9415731 123.339088,95.7663597 123.163541,95.5035394 C123.017252,95.3283259 123.017252,95.1531124 123.222057,94.9486967 C123.426861,94.8318877 123.631666,94.8610899 123.807213,95.0363034 C123.865728,95.1239102 124.041275,95.2115169 124.333853,95.3283259 C124.831236,95.5619439 124.450885,96.2920001 123.98276,96.0583821 Z M120.721693,82.6043965 L124.412059,79.0076124 C126.31964,77.9425452 128.120253,77.750484 129.920866,78.0123857 L132.078037,75.8997116 C133.12988,76.7377972 134.181724,77.9425452 135.233567,79.5139558 C137.230287,80.2123605 139.36963,80.9282253 141.740734,81.1552068 L144.664503,81.4520288 C145.912453,81.5917097 147.01778,81.5044091 147.980484,81.2075871 L149.745441,79.4790355 C149.656302,79.9155385 149.460196,80.2647408 149.17495,80.5441027 L145.502412,84.1583469 C143.933561,85.6948372 139.815326,84.9615123 138.050368,84.7519909 L137.925573,84.7519909 C139.708359,89.1694005 140.724547,94.1106136 140.492785,97.5327966 L136.802419,101.129581 C136.802419,101.147041 136.606312,100.902599 136.214099,100.413716 C135.429674,99.4359493 134.324347,98.2137411 133.272503,97.4280359 C132.737668,97.0439133 132.327627,96.9566127 132.042381,97.1835942 L135.732747,93.56935 C135.750575,93.5518899 135.821887,93.5169696 135.911026,93.4820494 C134.983977,89.8503451 133.46861,86.0614997 131.543201,83.1282 C127.745868,81.8012311 124.376404,80.5266426 120.721693,82.6043965 Z M138.86601,78.3770286 C139.640443,79.324247 142.818842,79.5099761 143.786882,79.5842677 C143.948222,79.5842677 144.028892,79.6771323 144.028892,79.8628614 C144.028892,80.0300176 143.948222,80.1228821 143.786882,80.1228821 C142.496162,80.0485905 139.446835,79.9185801 138.46266,78.6741952 C138.269052,78.3770286 138.672402,78.0798621 138.86601,78.3770286 Z M144.760789,79.0816697 L145.082625,79.0816697 C145.580008,78.9648607 145.81407,79.811726 145.258172,79.9285349 C145.024109,79.9577372 144.848563,79.9577372 144.760789,79.9577372 C144.468211,79.9577372 144.321922,79.811726 144.321922,79.5197035 C144.321922,79.227681 144.468211,79.0816697 144.760789,79.0816697 Z M129.658396,82.9417657 C130.305203,82.9585207 130.690535,83.1930906 130.814392,83.6454754 C130.938249,84.0978603 131.117153,84.7010401 131.351104,85.4215048 C131.447437,85.7398497 131.062105,85.8738896 130.965772,85.5890547 C130.745583,84.86859 130.607964,84.3659402 130.566678,84.0475953 C130.511631,83.7292504 130.236394,83.5281905 129.754729,83.4276605 C129.479491,83.5114355 129.383158,83.0255407 129.658396,82.9417657 Z M140.393614,95.3506295 C140.335099,95.175416 140.305841,95.058607 140.305841,94.9710002 C140.305841,94.6789778 140.45213,94.5329665 140.744708,94.5329665 C141.037286,94.5329665 141.183575,94.6789778 141.183575,94.9710002 L141.183575,95.0002025 L141.212833,95.0878092 C141.329864,95.642652 140.598419,95.9054722 140.393614,95.3506295 Z M141.371706,96.2222386 C141.371706,96.8086128 141.416231,97.1017998 141.527544,97.1017998 C141.616594,97.1145471 141.171344,97.3567451 140.214057,97.8411411 C139.924644,98.0068556 139.434869,97.7264158 139.791069,97.5607013 L140.280844,97.3185033 L140.881931,96.9998217 C140.770619,96.8468546 140.726094,96.579162 140.726094,96.1967441 C140.726094,95.9545461 141.393969,95.9672933 141.371706,96.2222386 Z M153.103414,92.6084231 C153.625098,93.7059359 154.020857,94.6441323 154.326672,95.4053106 C154.614497,96.1841906 154.704443,96.6267361 154.578519,96.732947 L150.764834,99.9900817 C150.674888,100.078591 150.477008,99.9723799 150.171194,99.671449 L150.692877,99.2289035 C150.261139,97.7950561 148.6781,94.5733251 147.185006,91.6525249 C146.447454,90.2009757 145.763869,88.9087429 145.15224,87.7581247 C144.522622,86.6252083 144.162841,85.9879428 144.072895,85.8463282 L145.565989,84.5717973 C144.630557,84.0761463 144.126862,83.4565826 144.054906,82.6954044 L147.850602,79.4382697 C148.012504,81.4739789 151.322495,82.0935426 154.236726,82.8016153 C157.150958,83.5096881 159.65144,84.2885681 158.266281,86.5721028 C158.032423,86.9084374 157.780576,87.1916665 157.510739,87.4217901 L155.082213,89.492903 C156.449384,89.4397975 160.694807,89.0857611 161.468337,88.6255138 C162.241868,88.1652665 162.151922,88.2360738 162.079966,89.4220957 C162.025999,90.0239575 162.241868,91.0860667 162.691595,92.6084231 C162.745562,92.820845 162.835508,93.1040741 162.925453,93.4581104 C163.015398,93.8121468 163.105344,94.183885 163.213278,94.5733251 L164.652405,93.3518995 C164.598438,93.989165 164.54447,94.7149396 164.490503,95.5469251 C164.436536,96.3789106 164.310612,97.0869834 164.130722,97.6711434 L164.112732,97.6888452 L160.299047,100.928278 C160.227091,100.981384 160.011222,100.291013 159.669429,98.8925689 C159.309648,97.4941252 159.039811,96.4851215 158.87791,95.8832597 C158.428183,94.3609032 158.212314,93.2987941 158.266281,92.6969322 C158.338237,91.4932085 158.428183,91.4224012 157.654652,91.8826485 C157.276881,92.1127722 156.431394,92.2897904 155.15417,92.4137031 L154.056836,92.519914 C153.715043,92.5553177 153.39124,92.5907213 153.103414,92.6084231 Z M148.869243,85.7405735 C149.300308,86.5912652 149.770559,87.4999586 150.279999,88.4666538 C150.789438,89.4526828 151.279284,90.400044 151.749536,91.3474052 L153.904857,89.5106845 C153.963639,89.4526828 154.139983,89.3560133 154.43389,89.2013421 C154.923736,87.1906162 151.92588,86.4945957 148.869243,85.7405735 Z M154.041059,95.5281604 C154.353545,96.8949157 154.566604,97.5865268 154.666031,97.6194606 C154.765458,97.6688614 154.239913,98.1134686 153.117804,98.9862159 C152.989969,99.0685506 152.890541,99.0520836 152.84793,98.9038813 C152.77691,98.7721458 152.791114,98.6568773 152.918949,98.5745426 L153.600737,98.0640678 C153.600737,98.0640678 153.813796,97.8993985 154.254117,97.5535929 C154.197302,97.2407212 154.097874,96.9443164 153.970039,96.6314448 C153.842204,96.3185731 153.728572,95.9563006 153.643349,95.5281604 C153.643349,95.379958 153.714368,95.2976233 153.842204,95.2976233 C153.984243,95.2976233 154.055263,95.379958 154.041059,95.5281604 Z M163.552058,97.8924567 L163.845145,98.3707646 L160.393232,101.630345 L160.100145,101.134322 L163.552058,97.8924567 Z M182.666728,94.8410605 C183.953635,95.8468838 184.517758,96.4115565 184.394356,96.5350786 L181.150645,99.7819467 C181.115387,99.8348848 180.903841,99.8172387 180.516006,99.7466547 C178.4358,99.3760882 176.708171,98.9172916 175.315491,98.440849 C173.922811,97.9644064 171.155079,97.7703002 168.757554,97.8938223 C167.981884,97.9467604 167.188585,98.1585127 166.360028,98.5643712 L164.350338,100.576018 C164.367967,100.540726 164.367967,100.505434 164.385596,100.487788 C164.403224,100.470142 164.403224,100.43485 164.403224,100.399557 C164.685286,99.1290439 164.244565,94.5587242 164.033018,93.5881929 C163.116317,89.4060857 162.9224,87.0591647 160.824565,84.2887393 C160.366215,84.1652171 160.066524,84.076987 159.907864,84.059341 L160.313328,83.6534825 C160.048895,83.300562 159.643431,82.8594115 159.132194,82.3300308 L162.375905,79.0831627 C163.116317,79.8595877 163.680441,80.5124905 164.068276,81.0418712 C164.861575,81.2889155 165.848791,81.6241899 167.065183,82.0476945 C169.480337,82.8947035 172.424358,83.26527 175.192089,83.26527 L179.264357,83.26527 L176.020646,86.5121381 C172.917966,86.5121381 170.661471,86.6003682 167.505905,86.1768636 C167.100441,86.1239256 166.694977,86.0533415 166.307142,85.9651114 C166.465802,86.5827222 166.606832,87.253271 166.747863,87.9767579 C166.888894,88.7002448 167.065183,89.4766698 167.2591,90.3413249 C167.2591,90.482493 167.294358,90.6942453 167.347245,90.9589356 L169.58611,88.7178908 C170.820131,88.859059 172.142296,88.9119971 173.552605,88.876705 C174.962914,88.859059 176.320336,88.841413 177.607244,88.841413 L174.363533,92.0882811 C173.270543,92.0882811 172.124667,92.1059271 170.925904,92.1235731 C169.727141,92.1412191 168.581265,92.1235731 167.488276,92.052989 C167.629307,93.605839 167.770337,95.7410076 167.682193,96.799769 L168.228688,96.2527423 C169.163018,95.3175031 170.925904,94.7175384 171.983636,94.6469543 C174.046213,94.5587242 176.478996,94.7351844 177.889305,95.0351668 C177.836419,94.6469543 177.854048,94.2587418 177.906934,93.8528833 L181.168274,90.5707232 C181.221161,90.5530771 181.256418,90.5177851 181.274047,90.5001391 L181.150645,90.6236612 C180.886212,92.4235555 181.37982,93.8352372 182.666728,94.8410605 Z M168.810061,81.9179301 C168.546741,81.8595256 168.458967,81.6843121 168.575998,81.4214919 C168.634514,81.1878739 168.810061,81.1002672 169.073381,81.1586716 C169.190412,81.2462784 169.336701,81.3046829 169.48299,81.3338851 C169.951115,81.3338851 170.038889,82.0931436 169.541506,82.1223459 C169.336701,82.1223459 169.102639,82.0639414 168.810061,81.9179301 Z M170.280529,81.8056748 C170.13472,81.7472703 170.086118,81.5720568 170.150921,81.3092365 C170.183323,81.0756186 170.280529,80.9880118 170.426338,81.0464163 C171.090578,81.3092365 171.576607,81.48445 171.916828,81.6304613 C172.240847,81.7764725 172.516264,81.8640793 172.743078,81.9224838 C172.872685,81.951686 173.034695,82.0100905 173.180504,82.0100905 C173.407318,82.0392928 173.698935,82.068495 174.039156,82.068495 C174.379376,82.0976973 174.865405,82.0976973 175.529645,82.0976973 C175.675454,82.0976973 175.740258,82.2437085 175.740258,82.5065287 C175.740258,82.769349 175.675454,82.886158 175.529645,82.886158 C172.305651,82.8569557 173.326313,82.9737647 170.280529,81.8056748 Z M177.120319,85.9522256 C176.976281,85.9522256 176.760223,86.0470351 176.490151,86.2176923 L179.803036,82.7287019 C180.073108,82.5580447 180.289165,82.4632352 180.433204,82.4821971 C180.577242,82.501159 180.82931,82.501159 181.171401,82.501159 L177.858517,85.9711875 C177.516425,85.9711875 177.264358,85.9711875 177.120319,85.9522256 Z M168.230427,94.6681281 C167.967106,94.6681281 167.820817,94.6019244 167.820817,94.4827578 L167.820817,93.754517 L167.645271,93.0130356 C167.616013,92.9071097 167.703786,92.840906 167.967106,92.8011838 C168.230427,92.787943 168.405974,92.840906 168.435231,92.9468319 L168.610778,93.7280356 L168.640036,94.4827578 C168.640036,94.6019244 168.493747,94.6681281 168.230427,94.6681281 Z M203.349046,94.7710096 C204.635953,95.7768329 205.200076,96.3415056 205.076674,96.4650278 L201.832963,99.7118958 C201.797706,99.7648339 201.586159,99.7471879 201.198324,99.6766038 C199.118118,99.3060373 197.39049,98.8472407 195.997809,98.3707981 C194.605129,97.8943556 191.837397,97.7002493 189.439872,97.8237715 C188.664202,97.8767095 187.870903,98.0884618 187.042347,98.4943203 L185.032656,100.505967 C185.050285,100.470675 185.050285,100.435383 185.067914,100.417737 C185.085543,100.400091 185.085543,100.364799 185.085543,100.329507 C185.367604,99.058993 184.926883,94.4886733 184.715336,93.5181421 C183.798636,89.3360348 183.604718,86.9891139 181.506883,84.2186884 C181.048533,84.0951662 180.748842,84.0069361 180.590182,83.9892901 L180.995646,83.5834316 C180.731213,83.2305112 180.325749,82.7893606 179.814512,82.2599799 L183.058223,79.0131119 C183.798636,79.7895368 184.362759,80.4424397 184.750594,80.9718203 C185.543893,81.2188646 186.531109,81.5541391 187.747501,81.9776436 C190.162655,82.8246527 193.106676,83.1952191 195.874407,83.1952191 L199.946675,83.1952191 L196.702964,86.4420872 C193.600284,86.4420872 191.343789,86.5303173 188.188223,86.1068128 C187.782759,86.0538747 187.377295,85.9832906 186.98946,85.8950605 C187.14812,86.5126713 187.289151,87.1832201 187.430182,87.906707 C187.571212,88.6301939 187.747501,89.4066189 187.941419,90.271274 C187.941419,90.4124422 187.976676,90.6241944 188.029563,90.8888848 L190.268429,88.64784 C191.502449,88.7890081 192.824614,88.8419462 194.234923,88.8066542 C195.645232,88.7890081 197.002655,88.7713621 198.289562,88.7713621 L195.045851,92.0182302 C193.952861,92.0182302 192.806985,92.0358762 191.608222,92.0535222 C190.40946,92.0711682 189.263583,92.0535222 188.170594,91.9829381 C188.311625,93.5357881 188.452656,95.6709568 188.364511,96.7297181 L188.911006,96.1826914 C189.845336,95.2474522 191.608222,94.6474875 192.665954,94.5769034 C194.728531,94.4886733 197.161314,94.6651335 198.571624,94.9651159 C198.518737,94.5769034 198.536366,94.1886909 198.589252,93.7828324 L201.850592,90.5006723 C201.903479,90.4830263 201.938737,90.4477342 201.956365,90.4300882 L201.832963,90.5536103 C201.56853,92.3535046 202.062139,93.7651864 203.349046,94.7710096 Z M188.641291,80.8355186 C188.377971,80.7771141 188.290198,80.6019006 188.407229,80.3390804 C188.465744,80.1054624 188.641291,80.0178557 188.904612,80.0762602 C189.021643,80.1638669 189.167932,80.2222714 189.314221,80.2514737 C189.782346,80.2514737 189.870119,81.0107321 189.372737,81.0399344 C189.167932,81.0399344 188.933869,80.9815299 188.641291,80.8355186 Z M190.962847,81.7356239 C190.817039,81.6772194 190.768436,81.5020059 190.83324,81.2391857 C190.865642,81.0055677 190.962847,80.9179609 191.108656,80.9763654 C191.772896,81.2391857 192.258925,81.4143992 192.599146,81.5604104 C192.923165,81.7064217 193.198582,81.7940284 193.425396,81.8524329 C193.555004,81.8816351 193.717013,81.9400396 193.862822,81.9400396 C194.089636,81.9692419 194.381253,81.9984441 194.721474,81.9984441 C195.061694,82.0276464 195.547724,82.0276464 196.211964,82.0276464 C196.357772,82.0276464 196.422576,82.1736576 196.422576,82.4364779 C196.422576,82.6992981 196.357772,82.8161071 196.211964,82.8161071 C192.987969,82.7869048 194.008631,82.9037138 190.962847,81.7356239 Z M197.721038,86.8130907 C197.577,86.8130907 197.360942,86.9079003 197.09087,87.0785574 L200.403754,83.589567 C200.673826,83.4189099 200.889884,83.3241003 201.033922,83.3430622 C201.177961,83.3620241 201.430028,83.3620241 201.77212,83.3620241 L198.459235,86.8320526 C198.117144,86.8320526 197.865077,86.8320526 197.721038,86.8130907 Z M188.912745,94.5980772 C188.649425,94.5980772 188.503136,94.5318735 188.503136,94.4127069 L188.503136,93.6844662 L188.327589,92.9429847 C188.298331,92.8370588 188.386104,92.7708551 188.649425,92.7311329 C188.912745,92.7178921 189.088292,92.7708551 189.11755,92.876781 L189.293096,93.6579847 L189.322354,94.4127069 C189.322354,94.5318735 189.176065,94.5980772 188.912745,94.5980772 Z M194.124094,81.509747 L197.81446,77.9129629 C199.72204,76.8478958 201.522653,76.6558345 203.323267,76.9177363 L205.480437,74.8050621 C206.532281,75.6431477 207.584124,76.8478958 208.635968,78.4193063 C210.632687,79.117711 212.77203,79.8335758 215.143135,80.0605573 L218.066903,80.3573793 C219.314853,80.4970602 220.42018,80.4097597 221.382884,80.1129377 L223.147842,78.3843861 C223.058702,78.820889 222.862596,79.1700913 222.57735,79.4494532 L218.904812,83.0636974 C217.335961,84.6001877 213.217726,83.8668628 211.452769,83.6573414 L211.327974,83.6573414 C213.110759,88.074751 214.126947,93.0159642 213.895185,96.4381471 L210.204819,100.034931 C210.204819,100.052391 210.008712,99.8079497 209.6165,99.3190664 C208.832074,98.3412999 207.726747,97.1190917 206.674904,96.3333864 C206.140068,95.9492638 205.730027,95.8619632 205.444782,96.0889448 L209.135148,92.4747005 C209.152975,92.4572404 209.224287,92.4223202 209.313426,92.3873999 C208.386378,88.7556956 206.87101,84.9668502 204.945602,82.0335505 C201.148268,80.7065816 197.778804,79.4319931 194.124094,81.509747 Z M212.186811,78.2132952 C212.961244,79.1605135 216.139643,79.3462426 217.107683,79.4205343 C217.269023,79.4205343 217.349693,79.5133988 217.349693,79.6991279 C217.349693,79.8662841 217.269023,79.9591487 217.107683,79.9591487 C215.816963,79.884857 212.767635,79.7548466 211.783461,78.5104617 C211.589853,78.2132952 211.993203,77.9161286 212.186811,78.2132952 Z M217.99999,79.8488523 L218.321826,79.8488523 C218.819209,79.7320433 219.053271,80.5789085 218.497373,80.6957175 C218.263311,80.7249197 218.087764,80.7249197 217.99999,80.7249197 C217.707412,80.7249197 217.561123,80.5789085 217.561123,80.286886 C217.561123,79.9948635 217.707412,79.8488523 217.99999,79.8488523 Z M203.911884,82.8594768 C204.558691,82.8762318 204.944023,83.1108017 205.06788,83.5631866 C205.191737,84.0155714 205.370641,84.6187512 205.604592,85.3392159 C205.700925,85.6575608 205.315593,85.7916008 205.21926,85.5067659 C204.999071,84.7863011 204.861452,84.2836513 204.820166,83.9653064 C204.765119,83.6469616 204.489882,83.4459016 204.008217,83.3453717 C203.732979,83.4291466 203.636646,82.9432518 203.911884,82.8594768 Z M214.565503,96.1992566 C214.506987,96.0240431 214.477729,95.9072341 214.477729,95.8196274 C214.477729,95.5276049 214.624018,95.3815937 214.916596,95.3815937 C215.209175,95.3815937 215.355464,95.5276049 215.355464,95.8196274 L215.355464,95.8488296 L215.384721,95.9364364 C215.501753,96.4912791 214.770307,96.7540993 214.565503,96.1992566 Z M215.543595,97.0708658 C215.543595,97.6572399 215.58812,97.950427 215.699432,97.950427 C215.788482,97.9631742 215.343232,98.2053723 214.385945,98.6897683 C214.096533,98.8554827 213.606758,98.5750429 213.962958,98.4093285 L214.452733,98.1671305 L215.05382,97.8484489 C214.942507,97.6954817 214.897982,97.4277892 214.897982,97.0453712 C214.897982,96.8031732 215.565857,96.8159205 215.543595,97.0708658 Z" id="InTheStreet" fill="#2D2D2D" transform="translate(116.815619, 90.098445) rotate(-5.000000) translate(-116.815619, -90.098445) "></path>
            </g>
        </g>
    </g>
</svg>